<svg xmlns="http://www.w3.org/2000/svg" version="1.1" width="1024" height="680">
<rect x="0" y="0" width="1024" height="680" fill="#79746f" />
<g transform="scale(4.000000) translate(0.5 0.5)">
<g transform="translate(117 143) rotate(24) scale(212 145)"><rect fill="#000000" fill-opacity="0.501961" x="-0.5" y="-0.5" width="1" height="1" /></g>
<ellipse fill="#ffffff" fill-opacity="0.501961" cx="81" cy="16" rx="255" ry="22" />
<g transform="translate(4 48) rotate(195) scale(59 126)"><rect fill="#ffffff" fill-opacity="0.501961" x="-0.5" y="-0.5" width="1" height="1" /></g>
<g transform="translate(255 89) rotate(91) scale(200 40)"><rect fill="#ffffff" fill-opacity="0.501961" x="-0.5" y="-0.5" width="1" height="1" /></g>
<ellipse fill="#ffffff" fill-opacity="0.501961" cx="240" cy="7" rx="162" ry="21" />
<polygon fill="#6f614e" fill-opacity="0.501961" points="191,131 119,10 35,29" />
<g transform="translate(2 49) rotate(201) scale(59 128)"><rect fill="#ffffff" fill-opacity="0.501961" x="-0.5" y="-0.5" width="1" height="1" /></g>
<ellipse fill="#3d2d1d" fill-opacity="0.501961" cx="224" cy="108" rx="25" ry="34" />
<ellipse fill="#0f090a" fill-opacity="0.501961" cx="75" cy="150" rx="138" ry="41" />
<polygon fill="#131623" fill-opacity="0.501961" points="86,16 16,169 37,33" />
<polygon fill="#f9e3bc" fill-opacity="0.501961" points="140,107 218,44 192,19" />
<g transform="translate(251 59) rotate(118) scale(50 34)"><rect fill="#ffffff" fill-opacity="0.501961" x="-0.5" y="-0.5" width="1" height="1" /></g>
<g transform="translate(254 145) rotate(117) scale(72 31)"><rect fill="#ffffff" fill-opacity="0.501961" x="-0.5" y="-0.5" width="1" height="1" /></g>
<g transform="translate(92 34) rotate(-12) scale(10 49)"><rect fill="#ffffff" fill-opacity="0.501961" x="-0.5" y="-0.5" width="1" height="1" /></g>
<ellipse fill="#ffffff" fill-opacity="0.501961" cx="215" cy="9" rx="100" ry="20" />
<g transform="translate(8 52) rotate(100) scale(100 46)"><rect fill="#ffffff" fill-opacity="0.501961" x="-0.5" y="-0.5" width="1" height="1" /></g>
<polygon fill="#514438" fill-opacity="0.501961" points="167,26 233,149 250,103" />
<polygon fill="#292628" fill-opacity="0.501961" points="114,119 69,2 9,124" />
<g transform="translate(112 47) rotate(359) scale(28 65)"><rect fill="#6a5c45" fill-opacity="0.501961" x="-0.5" y="-0.5" width="1" height="1" /></g>
<g transform="translate(195 104) rotate(394) scale(12 21)"><rect fill="#cec0a7" fill-opacity="0.501961" x="-0.5" y="-0.5" width="1" height="1" /></g>
<polygon fill="#b39b7a" fill-opacity="0.501961" points="128,26 199,50 80,60" />
<rect fill="#12121b" fill-opacity="0.501961" x="100" y="17" width="24" height="17" />
<g transform="translate(255 62) rotate(-10) scale(27 134)"><rect fill="#ffffff" fill-opacity="0.501961" x="-0.5" y="-0.5" width="1" height="1" /></g>
<rect fill="#272425" fill-opacity="0.501961" x="212" y="30" width="25" height="15" />
<polygon fill="#776853" fill-opacity="0.501961" points="195,121 96,29 110,104" />
<rect fill="#ffffff" fill-opacity="0.501961" x="0" y="0" width="242" height="13" />
<ellipse fill="#ffffff" fill-opacity="0.501961" cx="254" cy="162" rx="25" ry="25" />
<ellipse fill="#fff3d5" fill-opacity="0.501961" cx="178" cy="70" rx="10" ry="10" />
<g transform="translate(171 112) rotate(114) scale(67 18)"><rect fill="#1d1c20" fill-opacity="0.501961" x="-0.5" y="-0.5" width="1" height="1" /></g>
<ellipse fill="#ffffff" fill-opacity="0.501961" cx="0" cy="42" rx="27" ry="77" />
<g transform="translate(59 149) rotate(240) scale(114 53)"><rect fill="#101119" fill-opacity="0.501961" x="-0.5" y="-0.5" width="1" height="1" /></g>
<polygon fill="#c2b194" fill-opacity="0.501961" points="192,29 232,54 234,95" />
<ellipse fill="#33271e" fill-opacity="0.501961" cx="148" cy="63" rx="11" ry="11" />
<ellipse fill="#564c41" fill-opacity="0.501961" cx="222" cy="107" rx="24" ry="41" />
<g transform="translate(255 154) rotate(29) scale(37 84)"><rect fill="#ffffff" fill-opacity="0.501961" x="-0.5" y="-0.5" width="1" height="1" /></g>
<ellipse fill="#c6bca9" fill-opacity="0.501961" cx="159" cy="96" rx="9" ry="9" />
<ellipse fill="#fffffe" fill-opacity="0.501961" cx="186" cy="20" rx="60" ry="10" />
<ellipse fill="#ffffff" fill-opacity="0.501961" cx="90" cy="22" rx="7" ry="18" />
<polygon fill="#957d62" fill-opacity="0.501961" points="126,57 175,25 209,56" />
<ellipse fill="#150f15" fill-opacity="0.501961" cx="74" cy="10" rx="3" ry="3" />
<polygon fill="#313237" fill-opacity="0.501961" points="57,10 56,110 0,153" />
<polygon fill="#362b22" fill-opacity="0.501961" points="87,149 219,169 56,53" />
<g transform="translate(32 6) rotate(383) scale(48 37)"><rect fill="#feffff" fill-opacity="0.501961" x="-0.5" y="-0.5" width="1" height="1" /></g>
<ellipse fill="#fcf3d8" fill-opacity="0.501961" cx="189" cy="77" rx="5" ry="5" />
<g transform="translate(94 1) rotate(203) scale(24 39)"><rect fill="#ffffff" fill-opacity="0.501961" x="-0.5" y="-0.5" width="1" height="1" /></g>
<ellipse fill="#ffffff" fill-opacity="0.501961" cx="251" cy="50" rx="13" ry="47" />
<rect fill="#ffffff" fill-opacity="0.501961" x="92" y="41" width="8" height="9" />
<rect fill="#e5dbc1" fill-opacity="0.501961" x="157" y="67" width="34" height="13" />
<g transform="translate(213 8) rotate(295) scale(71 15)"><rect fill="#ffffff" fill-opacity="0.501961" x="-0.5" y="-0.5" width="1" height="1" /></g>
<ellipse fill="#1c202d" fill-opacity="0.501961" cx="77" cy="46" rx="13" ry="13" />
<rect fill="#1d1d2a" fill-opacity="0.501961" x="236" y="96" width="11" height="31" />
<g transform="translate(125 69) rotate(25) scale(67 21)"><rect fill="#786751" fill-opacity="0.501961" x="-0.5" y="-0.5" width="1" height="1" /></g>
<polygon fill="#aea189" fill-opacity="0.501961" points="173,46 98,45 124,27" />
<g transform="translate(199 70) rotate(224) scale(17 10)"><rect fill="#1d1a1f" fill-opacity="0.501961" x="-0.5" y="-0.5" width="1" height="1" /></g>
<polygon fill="#716654" fill-opacity="0.501961" points="179,125 199,111 154,112" />
<rect fill="#131622" fill-opacity="0.501961" x="166" y="83" width="25" height="13" />
<g transform="translate(101 33) rotate(167) scale(8 16)"><rect fill="#2e2a2e" fill-opacity="0.501961" x="-0.5" y="-0.5" width="1" height="1" /></g>
<g transform="translate(133 93) rotate(165) scale(25 46)"><rect fill="#595040" fill-opacity="0.501961" x="-0.5" y="-0.5" width="1" height="1" /></g>
<g transform="translate(191 169) rotate(174) scale(64 95)"><rect fill="#2e2621" fill-opacity="0.501961" x="-0.5" y="-0.5" width="1" height="1" /></g>
<g transform="translate(239 61) rotate(167) scale(17 12)"><rect fill="#ffffff" fill-opacity="0.501961" x="-0.5" y="-0.5" width="1" height="1" /></g>
<g transform="translate(0 146) rotate(-3) scale(11 55)"><rect fill="#5a555a" fill-opacity="0.501961" x="-0.5" y="-0.5" width="1" height="1" /></g>
<g transform="translate(67 169) rotate(130) scale(48 85)"><rect fill="#0d0c12" fill-opacity="0.501961" x="-0.5" y="-0.5" width="1" height="1" /></g>
<g transform="translate(114 72) rotate(68) scale(14 28)"><rect fill="#9f8b68" fill-opacity="0.501961" x="-0.5" y="-0.5" width="1" height="1" /></g>
<rect fill="#a89a82" fill-opacity="0.501961" x="228" y="57" width="4" height="55" />
<rect fill="#bea686" fill-opacity="0.501961" x="166" y="46" width="23" height="20" />
<g transform="translate(163 76) rotate(206) scale(9 30)"><rect fill="#dfcfae" fill-opacity="0.501961" x="-0.5" y="-0.5" width="1" height="1" /></g>
<rect fill="#3b393b" fill-opacity="0.501961" x="28" y="65" width="60" height="15" />
<rect fill="#ffffff" fill-opacity="0.501961" x="67" y="12" width="3" height="11" />
<g transform="translate(67 9) rotate(28) scale(3 14)"><rect fill="#261f21" fill-opacity="0.501961" x="-0.5" y="-0.5" width="1" height="1" /></g>
<g transform="translate(152 36) rotate(235) scale(8 34)"><rect fill="#d4bd97" fill-opacity="0.501961" x="-0.5" y="-0.5" width="1" height="1" /></g>
<ellipse fill="#322e33" fill-opacity="0.501961" cx="231" cy="48" rx="6" ry="6" />
<g transform="translate(59 44) rotate(332) scale(54 11)"><rect fill="#404146" fill-opacity="0.501961" x="-0.5" y="-0.5" width="1" height="1" /></g>
<g transform="translate(19 43) rotate(106) scale(118 30)"><rect fill="#ffffff" fill-opacity="0.501961" x="-0.5" y="-0.5" width="1" height="1" /></g>
<g transform="translate(173 41) rotate(304) scale(8 15)"><rect fill="#513e32" fill-opacity="0.501961" x="-0.5" y="-0.5" width="1" height="1" /></g>
<rect fill="#ffffff" fill-opacity="0.501961" x="129" y="0" width="107" height="26" />
<g transform="translate(194 60) rotate(246) scale(12 23)"><rect fill="#816e5a" fill-opacity="0.501961" x="-0.5" y="-0.5" width="1" height="1" /></g>
<g transform="translate(241 3) rotate(45) scale(105 49)"><rect fill="#fcfcfc" fill-opacity="0.501961" x="-0.5" y="-0.5" width="1" height="1" /></g>
<g transform="translate(223 29) rotate(257) scale(3 12)"><rect fill="#6d5a4a" fill-opacity="0.501961" x="-0.5" y="-0.5" width="1" height="1" /></g>
<ellipse fill="#3c393c" fill-opacity="0.501961" cx="43" cy="41" rx="2" ry="22" />
<ellipse fill="#c9beac" fill-opacity="0.501961" cx="89" cy="59" rx="4" ry="5" />
<ellipse fill="#423729" fill-opacity="0.501961" cx="105" cy="59" rx="8" ry="8" />
<ellipse fill="#ffffff" fill-opacity="0.501961" cx="77" cy="18" rx="3" ry="3" />
<polygon fill="#423932" fill-opacity="0.501961" points="73,80 75,123 114,169" />
<g transform="translate(99 12) rotate(130) scale(45 9)"><rect fill="#ffffff" fill-opacity="0.501961" x="-0.5" y="-0.5" width="1" height="1" /></g>
<ellipse fill="#555154" fill-opacity="0.501961" cx="16" cy="115" rx="8" ry="8" />
<rect fill="#19181c" fill-opacity="0.501961" x="31" y="89" width="40" height="50" />
<polygon fill="#2e2d31" fill-opacity="0.501961" points="38,88 73,11 86,81" />
<polygon fill="#513d26" fill-opacity="0.501961" points="150,157 195,150 144,142" />
<g transform="translate(194 92) rotate(174) scale(6 28)"><rect fill="#c9c3b4" fill-opacity="0.501961" x="-0.5" y="-0.5" width="1" height="1" /></g>
<g transform="translate(190 93) rotate(284) scale(13 5)"><rect fill="#26282e" fill-opacity="0.501961" x="-0.5" y="-0.5" width="1" height="1" /></g>
<rect fill="#111011" fill-opacity="0.501961" x="109" y="132" width="20" height="16" />
<ellipse fill="#695c44" fill-opacity="0.501961" cx="107" cy="83" rx="8" ry="8" />
<ellipse fill="#221d24" fill-opacity="0.501961" cx="123" cy="23" rx="4" ry="4" />
<g transform="translate(255 163) rotate(86) scale(70 27)"><rect fill="#fefeff" fill-opacity="0.501961" x="-0.5" y="-0.5" width="1" height="1" /></g>
<g transform="translate(94 93) rotate(67) scale(39 17)"><rect fill="#211818" fill-opacity="0.501961" x="-0.5" y="-0.5" width="1" height="1" /></g>
<polygon fill="#252229" fill-opacity="0.501961" points="64,34 59,25 66,12" />
<ellipse fill="#11151d" fill-opacity="0.501961" cx="152" cy="64" rx="6" ry="6" />
<rect fill="#675444" fill-opacity="0.501961" x="157" y="46" width="8" height="19" />
<ellipse fill="#6e5d58" fill-opacity="0.501961" cx="238" cy="137" rx="4" ry="4" />
<ellipse fill="#fefefd" fill-opacity="0.501961" cx="141" cy="8" rx="19" ry="19" />
<rect fill="#ffffff" fill-opacity="0.501961" x="89" y="0" width="7" height="43" />
<g transform="translate(226 157) rotate(208) scale(7 28)"><rect fill="#745a49" fill-opacity="0.501961" x="-0.5" y="-0.5" width="1" height="1" /></g>
<g transform="translate(165 134) rotate(192) scale(54 16)"><rect fill="#19181d" fill-opacity="0.501961" x="-0.5" y="-0.5" width="1" height="1" /></g>
<g transform="translate(2 121) rotate(217) scale(4 19)"><rect fill="#8c878c" fill-opacity="0.501961" x="-0.5" y="-0.5" width="1" height="1" /></g>
<rect fill="#29282e" fill-opacity="0.501961" x="3" y="121" width="16" height="49" />
<ellipse fill="#51443e" fill-opacity="0.501961" cx="233" cy="117" rx="18" ry="10" />
<ellipse fill="#3f3c3f" fill-opacity="0.501961" cx="214" cy="35" rx="5" ry="5" />
<ellipse fill="#ffffff" fill-opacity="0.501961" cx="255" cy="100" rx="6" ry="6" />
<ellipse fill="#120906" fill-opacity="0.501961" cx="77" cy="6" rx="2" ry="2" />
<ellipse fill="#ffffff" fill-opacity="0.501961" cx="248" cy="61" rx="15" ry="15" />
<g transform="translate(227 67) rotate(138) scale(8 32)"><rect fill="#afa18a" fill-opacity="0.501961" x="-0.5" y="-0.5" width="1" height="1" /></g>
<ellipse fill="#e0cc9e" fill-opacity="0.501961" cx="183" cy="29" rx="6" ry="6" />
<g transform="translate(4 84) rotate(71) scale(46 25)"><rect fill="#fdfdfd" fill-opacity="0.501961" x="-0.5" y="-0.5" width="1" height="1" /></g>
<g transform="translate(214 47) rotate(233) scale(23 6)"><rect fill="#cec5b2" fill-opacity="0.501961" x="-0.5" y="-0.5" width="1" height="1" /></g>
<ellipse fill="#ffffff" fill-opacity="0.501961" cx="44" cy="2" rx="14" ry="15" />
<rect fill="#3d3325" fill-opacity="0.501961" x="114" y="94" width="13" height="33" />
<ellipse fill="#63594a" fill-opacity="0.501961" cx="202" cy="103" rx="5" ry="31" />
<g transform="translate(202 141) rotate(227) scale(6 28)"><rect fill="#554633" fill-opacity="0.501961" x="-0.5" y="-0.5" width="1" height="1" /></g>
<g transform="translate(77 60) rotate(208) scale(13 40)"><rect fill="#303033" fill-opacity="0.501961" x="-0.5" y="-0.5" width="1" height="1" /></g>
<g transform="translate(156 120) rotate(210) scale(39 12)"><rect fill="#2e2924" fill-opacity="0.501961" x="-0.5" y="-0.5" width="1" height="1" /></g>
<rect fill="#434143" fill-opacity="0.501961" x="50" y="24" width="33" height="15" />
<ellipse fill="#ffffff" fill-opacity="0.501961" cx="112" cy="0" rx="40" ry="7" />
<ellipse fill="#363638" fill-opacity="0.501961" cx="178" cy="104" rx="11" ry="11" />
<ellipse fill="#8c7f69" fill-opacity="0.501961" cx="234" cy="85" rx="8" ry="8" />
<rect fill="#846449" fill-opacity="0.501961" x="82" y="62" width="6" height="11" />
<rect fill="#ffffff" fill-opacity="0.501961" x="83" y="21" width="12" height="13" />
<ellipse fill="#4d4641" fill-opacity="0.501961" cx="110" cy="25" rx="14" ry="14" />
<ellipse fill="#5c5654" fill-opacity="0.501961" cx="232" cy="41" rx="7" ry="7" />
<ellipse fill="#8e8d91" fill-opacity="0.501961" cx="59" cy="7" rx="3" ry="3" />
<polygon fill="#918771" fill-opacity="0.501961" points="128,29 110,33 91,62" />
<g transform="translate(129 130) rotate(312) scale(5 17)"><rect fill="#564630" fill-opacity="0.501961" x="-0.5" y="-0.5" width="1" height="1" /></g>
<rect fill="#25242c" fill-opacity="0.501961" x="170" y="81" width="18" height="16" />
<rect fill="#393632" fill-opacity="0.501961" x="43" y="100" width="14" height="17" />
<ellipse fill="#383a3e" fill-opacity="0.501961" cx="224" cy="39" rx="8" ry="8" />
<g transform="translate(41 41) rotate(152) scale(13 7)"><rect fill="#4e5057" fill-opacity="0.501961" x="-0.5" y="-0.5" width="1" height="1" /></g>
<g transform="translate(188 113) rotate(32) scale(7 19)"><rect fill="#8b8476" fill-opacity="0.501961" x="-0.5" y="-0.5" width="1" height="1" /></g>
<ellipse fill="#121019" fill-opacity="0.501961" cx="76" cy="53" rx="7" ry="7" />
<g transform="translate(133 76) rotate(286) scale(34 7)"><rect fill="#4f4840" fill-opacity="0.501961" x="-0.5" y="-0.5" width="1" height="1" /></g>
<ellipse fill="#242426" fill-opacity="0.501961" cx="107" cy="30" rx="6" ry="6" />
<g transform="translate(149 29) rotate(260) scale(7 26)"><rect fill="#e2cca2" fill-opacity="0.501961" x="-0.5" y="-0.5" width="1" height="1" /></g>
<g transform="translate(37 5) rotate(63) scale(21 74)"><rect fill="#fbfbfc" fill-opacity="0.501961" x="-0.5" y="-0.5" width="1" height="1" /></g>
<polygon fill="#3b3c42" fill-opacity="0.501961" points="37,41 20,107 56,44" />
<g transform="translate(182 47) rotate(282) scale(7 5)"><rect fill="#cec2ae" fill-opacity="0.501961" x="-0.5" y="-0.5" width="1" height="1" /></g>
<ellipse fill="#171222" fill-opacity="0.501961" cx="82" cy="18" rx="2" ry="2" />
<g transform="translate(255 25) rotate(79) scale(178 38)"><rect fill="#fdfdfd" fill-opacity="0.501961" x="-0.5" y="-0.5" width="1" height="1" /></g>
<ellipse fill="#86725b" fill-opacity="0.501961" cx="217" cy="68" rx="7" ry="7" />
<rect fill="#9e9687" fill-opacity="0.501961" x="156" y="88" width="11" height="18" />
<g transform="translate(154 0) rotate(198) scale(125 32)"><rect fill="#fcfcfc" fill-opacity="0.501961" x="-0.5" y="-0.5" width="1" height="1" /></g>
<rect fill="#70614f" fill-opacity="0.501961" x="99" y="74" width="56" height="11" />
<g transform="translate(119 48) rotate(286) scale(10 37)"><rect fill="#91846d" fill-opacity="0.501961" x="-0.5" y="-0.5" width="1" height="1" /></g>
<rect fill="#372e25" fill-opacity="0.501961" x="137" y="96" width="8" height="10" />
<g transform="translate(233 169) rotate(19) scale(11 51)"><rect fill="#feffff" fill-opacity="0.501961" x="-0.5" y="-0.5" width="1" height="1" /></g>
<ellipse fill="#d2c4a8" fill-opacity="0.501961" cx="201" cy="42" rx="7" ry="7" />
<ellipse fill="#ffffff" fill-opacity="0.501961" cx="95" cy="44" rx="4" ry="4" />
<ellipse fill="#1e181c" fill-opacity="0.501961" cx="215" cy="144" rx="6" ry="6" />
<g transform="translate(151 99) rotate(245) scale(23 6)"><rect fill="#826c51" fill-opacity="0.501961" x="-0.5" y="-0.5" width="1" height="1" /></g>
<polygon fill="#171213" fill-opacity="0.501961" points="88,121 116,123 143,150" />
<rect fill="#ac9d89" fill-opacity="0.501961" x="205" y="51" width="25" height="10" />
<ellipse fill="#a38e67" fill-opacity="0.501961" cx="166" cy="33" rx="6" ry="6" />
<rect fill="#443b36" fill-opacity="0.501961" x="195" y="68" width="17" height="14" />
<g transform="translate(172 73) rotate(64) scale(11 19)"><rect fill="#ebe3cb" fill-opacity="0.501961" x="-0.5" y="-0.5" width="1" height="1" /></g>
<rect fill="#1b1a1d" fill-opacity="0.501961" x="194" y="149" width="17" height="20" />
<ellipse fill="#5b6578" fill-opacity="0.501961" cx="173" cy="79" rx="2" ry="2" />
<g transform="translate(185 103) rotate(88) scale(23 7)"><rect fill="#474342" fill-opacity="0.501961" x="-0.5" y="-0.5" width="1" height="1" /></g>
<g transform="translate(14 33) rotate(55) scale(28 44)"><rect fill="#fcfcfc" fill-opacity="0.501961" x="-0.5" y="-0.5" width="1" height="1" /></g>
<rect fill="#2f2d31" fill-opacity="0.501961" x="103" y="21" width="25" height="7" />
<ellipse fill="#6a666c" fill-opacity="0.501961" cx="21" cy="105" rx="4" ry="4" />
<rect fill="#84745a" fill-opacity="0.501961" x="128" y="101" width="7" height="10" />
<g transform="translate(239 106) rotate(174) scale(9 22)"><rect fill="#2c2a2f" fill-opacity="0.501961" x="-0.5" y="-0.5" width="1" height="1" /></g>
<g transform="translate(167 102) rotate(303) scale(10 6)"><rect fill="#665f54" fill-opacity="0.501961" x="-0.5" y="-0.5" width="1" height="1" /></g>
<ellipse fill="#151821" fill-opacity="0.501961" cx="51" cy="35" rx="4" ry="4" />
<rect fill="#1c1b20" fill-opacity="0.501961" x="23" y="103" width="19" height="67" />
<rect fill="#d3c2a1" fill-opacity="0.501961" x="126" y="27" width="67" height="3" />
<g transform="translate(246 70) rotate(-34) scale(17 32)"><rect fill="#fefefd" fill-opacity="0.501961" x="-0.5" y="-0.5" width="1" height="1" /></g>
<g transform="translate(78 128) rotate(315) scale(12 23)"><rect fill="#262021" fill-opacity="0.501961" x="-0.5" y="-0.5" width="1" height="1" /></g>
<g transform="translate(227 111) rotate(104) scale(25 7)"><rect fill="#71624e" fill-opacity="0.501961" x="-0.5" y="-0.5" width="1" height="1" /></g>
<ellipse fill="#fbfbfb" fill-opacity="0.501961" cx="4" cy="8" rx="41" ry="41" />
<g transform="translate(46 71) rotate(72) scale(27 25)"><rect fill="#2c2c2f" fill-opacity="0.501961" x="-0.5" y="-0.5" width="1" height="1" /></g>
<g transform="translate(208 123) rotate(312) scale(31 9)"><rect fill="#33312e" fill-opacity="0.501961" x="-0.5" y="-0.5" width="1" height="1" /></g>
<ellipse fill="#4e4b54" fill-opacity="0.501961" cx="45" cy="19" rx="2" ry="2" />
<rect fill="#665b48" fill-opacity="0.501961" x="216" y="72" width="8" height="34" />
<rect fill="#5d6574" fill-opacity="0.501961" x="174" y="79" width="13" height="3" />
<rect fill="#feffff" fill-opacity="0.501961" x="93" y="36" width="4" height="17" />
<g transform="translate(183 92) rotate(248) scale(6 18)"><rect fill="#1f1f26" fill-opacity="0.501961" x="-0.5" y="-0.5" width="1" height="1" /></g>
<ellipse fill="#a89d8c" fill-opacity="0.501961" cx="194" cy="102" rx="7" ry="7" />
<ellipse fill="#181921" fill-opacity="0.501961" cx="17" cy="136" rx="9" ry="9" />
<ellipse fill="#e2e8eb" fill-opacity="0.501961" cx="91" cy="55" rx="2" ry="2" />
<polygon fill="#3e3c3a" fill-opacity="0.501961" points="54,82 62,55 86,72" />
<g transform="translate(48 0) rotate(137) scale(76 22)"><rect fill="#fcfcfc" fill-opacity="0.501961" x="-0.5" y="-0.5" width="1" height="1" /></g>
<g transform="translate(118 61) rotate(114) scale(27 7)"><rect fill="#9b8a6b" fill-opacity="0.501961" x="-0.5" y="-0.5" width="1" height="1" /></g>
<g transform="translate(0 102) rotate(33) scale(21 23)"><rect fill="#fdfefe" fill-opacity="0.501961" x="-0.5" y="-0.5" width="1" height="1" /></g>
<ellipse fill="#d1c8b5" fill-opacity="0.501961" cx="194" cy="86" rx="2" ry="6" />
<g transform="translate(100 48) rotate(133) scale(11 3)"><rect fill="#a39a8b" fill-opacity="0.501961" x="-0.5" y="-0.5" width="1" height="1" /></g>
<rect fill="#625b53" fill-opacity="0.501961" x="74" y="7" width="2" height="21" />
<ellipse fill="#857462" fill-opacity="0.501961" cx="155" cy="49" rx="8" ry="8" />
<ellipse fill="#232420" fill-opacity="0.501961" cx="116" cy="95" rx="4" ry="4" />
<ellipse fill="#4e4841" fill-opacity="0.501961" cx="84" cy="37" rx="3" ry="3" />
<rect fill="#ebdec0" fill-opacity="0.501961" x="131" y="26" width="56" height="2" />
<g transform="translate(210 29) rotate(147) scale(19 4)"><rect fill="#feffff" fill-opacity="0.501961" x="-0.5" y="-0.5" width="1" height="1" /></g>
<rect fill="#bab6b6" fill-opacity="0.501961" x="246" y="120" width="5" height="5" />
<rect fill="#b5a489" fill-opacity="0.501961" x="124" y="42" width="16" height="7" />
<g transform="translate(71 10) rotate(135) scale(7 4)"><rect fill="#ffffff" fill-opacity="0.501961" x="-0.5" y="-0.5" width="1" height="1" /></g>
<ellipse fill="#191b24" fill-opacity="0.501961" cx="61" cy="52" rx="8" ry="8" />
<ellipse fill="#b4a28a" fill-opacity="0.501961" cx="183" cy="51" rx="8" ry="8" />
<rect fill="#241a14" fill-opacity="0.501961" x="117" y="158" width="48" height="12" />
<g transform="translate(146 92) rotate(96) scale(5 13)"><rect fill="#8a7864" fill-opacity="0.501961" x="-0.5" y="-0.5" width="1" height="1" /></g>
<rect fill="#756959" fill-opacity="0.501961" x="198" y="93" width="10" height="11" />
<g transform="translate(101 2) rotate(148) scale(44 15)"><rect fill="#fcfcfc" fill-opacity="0.501961" x="-0.5" y="-0.5" width="1" height="1" /></g>
<polygon fill="#fcfcfc" fill-opacity="0.501961" points="41,8 0,51 30,60" />
<rect fill="#938982" fill-opacity="0.501961" x="245" y="92" width="4" height="11" />
<g transform="translate(248 167) rotate(117) scale(84 36)"><rect fill="#fcfdfd" fill-opacity="0.501961" x="-0.5" y="-0.5" width="1" height="1" /></g>
<ellipse fill="#6a6667" fill-opacity="0.501961" cx="59" cy="89" rx="2" ry="2" />
<g transform="translate(216 156) rotate(304) scale(15 15)"><rect fill="#332c28" fill-opacity="0.501961" x="-0.5" y="-0.5" width="1" height="1" /></g>
<ellipse fill="#332d21" fill-opacity="0.501961" cx="159" cy="63" rx="3" ry="3" />
<ellipse fill="#63636b" fill-opacity="0.501961" cx="29" cy="79" rx="4" ry="4" />
<ellipse fill="#fbfbfb" fill-opacity="0.501961" cx="200" cy="11" rx="81" ry="14" />
<ellipse fill="#383c47" fill-opacity="0.501961" cx="38" cy="48" rx="5" ry="5" />
<ellipse fill="#322c2d" fill-opacity="0.501961" cx="10" cy="159" rx="11" ry="11" />
<rect fill="#ffffff" fill-opacity="0.501961" x="67" y="13" width="3" height="7" />
<ellipse fill="#b09989" fill-opacity="0.501961" cx="99" cy="19" rx="3" ry="3" />
<ellipse fill="#3a3534" fill-opacity="0.501961" cx="103" cy="33" rx="5" ry="5" />
<rect fill="#b09e8a" fill-opacity="0.501961" x="200" y="46" width="14" height="8" />
<g transform="translate(88 100) rotate(255) scale(24 16)"><rect fill="#362823" fill-opacity="0.501961" x="-0.5" y="-0.5" width="1" height="1" /></g>
<rect fill="#776c5b" fill-opacity="0.501961" x="234" y="73" width="4" height="5" />
<rect fill="#b5a38f" fill-opacity="0.501961" x="233" y="32" width="5" height="5" />
<ellipse fill="#1f232b" fill-opacity="0.501961" cx="198" cy="69" rx="5" ry="5" />
<ellipse fill="#877761" fill-opacity="0.501961" cx="230" cy="82" rx="7" ry="7" />
<rect fill="#6c5a42" fill-opacity="0.501961" x="154" y="111" width="10" height="7" />
<rect fill="#16151c" fill-opacity="0.501961" x="34" y="92" width="35" height="7" />
<g transform="translate(49 21) rotate(212) scale(4 11)"><rect fill="#ffffff" fill-opacity="0.501961" x="-0.5" y="-0.5" width="1" height="1" /></g>
<ellipse fill="#16161f" fill-opacity="0.501961" cx="175" cy="108" rx="4" ry="4" />
<ellipse fill="#fcfcfc" fill-opacity="0.501961" cx="255" cy="72" rx="9" ry="36" />
<ellipse fill="#514a3e" fill-opacity="0.501961" cx="200" cy="116" rx="7" ry="7" />
<ellipse fill="#bbad94" fill-opacity="0.501961" cx="189" cy="73" rx="4" ry="4" />
<ellipse fill="#474238" fill-opacity="0.501961" cx="100" cy="144" rx="5" ry="5" />
<g transform="translate(173 160) rotate(72) scale(15 14)"><rect fill="#3c3223" fill-opacity="0.501961" x="-0.5" y="-0.5" width="1" height="1" /></g>
<ellipse fill="#ffffff" fill-opacity="0.501961" cx="59" cy="17" rx="2" ry="2" />
<rect fill="#2b2622" fill-opacity="0.501961" x="93" y="63" width="13" height="3" />
<ellipse fill="#fcfcfc" fill-opacity="0.501961" cx="186" cy="0" rx="110" ry="14" />
<polygon fill="#fcfcfc" fill-opacity="0.501961" points="249,70 232,65 248,27" />
<polygon fill="#ac8d69" fill-opacity="0.501961" points="160,75 156,68 151,90" />
<g transform="translate(164 128) rotate(-2) scale(17 9)"><rect fill="#151218" fill-opacity="0.501961" x="-0.5" y="-0.5" width="1" height="1" /></g>
<rect fill="#494042" fill-opacity="0.501961" x="54" y="16" width="3" height="22" />
<ellipse fill="#4c484d" fill-opacity="0.501961" cx="8" cy="118" rx="4" ry="4" />
<ellipse fill="#ffffff" fill-opacity="0.501961" cx="77" cy="17" rx="3" ry="3" />
<rect fill="#ffffff" fill-opacity="0.501961" x="58" y="13" width="3" height="10" />
<ellipse fill="#8b8c9b" fill-opacity="0.501961" cx="9" cy="110" rx="2" ry="2" />
<g transform="translate(227 47) rotate(31) scale(11 4)"><rect fill="#323337" fill-opacity="0.501961" x="-0.5" y="-0.5" width="1" height="1" /></g>
<g transform="translate(226 107) rotate(307) scale(3 11)"><rect fill="#83755f" fill-opacity="0.501961" x="-0.5" y="-0.5" width="1" height="1" /></g>
<ellipse fill="#635b49" fill-opacity="0.501961" cx="114" cy="58" rx="5" ry="5" />
</g>
</svg>